<svg width="30" height="30" viewBox="0 0 30 30" fill="none" xmlns="http://www.w3.org/2000/svg">
<path d="M23.3338 13.8294L9.98344 0.479264C9.67467 0.170243 9.26247 0 8.82297 0C8.38346 0 7.97127 0.170243 7.66249 0.479264L6.67933 1.46218C6.03957 2.10267 6.03957 3.14363 6.67933 3.78314L17.89 14.9938L6.66689 26.2169C6.35811 26.5259 6.18762 26.9378 6.18762 27.3771C6.18762 27.8168 6.35811 28.2288 6.66689 28.5381L7.65005 29.5207C7.95907 29.8298 8.37102 30 8.81053 30C9.25004 30 9.66223 29.8298 9.97101 29.5207L23.3338 16.1584C23.6433 15.8484 23.8133 15.4345 23.8124 14.9945C23.8133 14.5528 23.6433 14.1392 23.3338 13.8294Z" fill="#4E4E4E" fill-opacity="0.7"/>
</svg>
